<svg version="1.1" viewBox="0.0 0.0 551.2808398950132 495.4750656167979" fill="none" stroke="none" stroke-linecap="square" stroke-miterlimit="10" xmlns:xlink="http://www.w3.org/1999/xlink" xmlns="http://www.w3.org/2000/svg"><clipPath id="p.0"><path d="m0 0l551.2808 0l0 495.47507l-551.2808 0l0 -495.47507z" clip-rule="nonzero"/></clipPath><g clip-path="url(#p.0)"><path fill="#000000" fill-opacity="0.0" d="m0 0l551.2808 0l0 495.47507l-551.2808 0z" fill-rule="evenodd"/><path fill="#000000" fill-opacity="0.0" d="m378.81592 412.8398c-6.851074 6.2333374 -5.585907 17.772614 -6.7356873 26.966064c-0.7425232 5.9372864 -12.933685 4.434967 -14.823608 10.111908c-3.3364563 10.021942 17.096558 16.312042 27.623108 15.503967c3.9870605 -0.3060608 3.4233704 -9.703339 7.413269 -9.436829c3.6949463 0.24682617 9.401855 6.13443 10.778198 2.6946106c2.5549316 -6.385376 -8.803558 -10.582397 -12.799469 -16.179077c-2.8657227 -4.0137024 7.41037 -7.8738403 7.41037 -12.806488c0 -7.826416 -10.369354 -14.831787 -18.191467 -14.831787" fill-rule="evenodd"/><path stroke="#ffffff" stroke-width="1.0" stroke-linejoin="round" stroke-linecap="butt" d="m378.81592 412.8398c-6.851074 6.2333374 -5.585907 17.772614 -6.7356873 26.966064c-0.7425232 5.9372864 -12.933685 4.434967 -14.823608 10.111908c-3.3364563 10.021942 17.096558 16.312042 27.623108 15.503967c3.9870605 -0.3060608 3.4233704 -9.703339 7.413269 -9.436829c3.6949463 0.24682617 9.401855 6.13443 10.778198 2.6946106c2.5549316 -6.385376 -8.803558 -10.582397 -12.799469 -16.179077c-2.8657227 -4.0137024 7.41037 -7.8738403 7.41037 -12.806488c0 -7.826416 -10.369354 -14.831787 -18.191467 -14.831787" fill-rule="evenodd"/><path fill="#000000" fill-opacity="0.0" d="m479.069 207.44803c-13.574127 15.335251 -25.841187 52.28894 -6.6669617 60.243164c6.1108093 2.5350037 11.717499 -13.900482 17.036682 -10.03949c7.136963 5.18042 -1.4015503 17.927277 2.2223206 25.818512c3.5580444 7.7478943 19.58731 -16.379486 24.445404 -9.324371c2.340149 3.3984375 0.9342041 13.73819 4.444641 11.472839c12.196594 -7.8707275 18.013123 -22.780151 23.703613 -35.858017c2.4996338 -5.744705 7.9034424 -18.168976 1.4836426 -18.645676c-6.7246704 -0.4993286 -11.906677 9.16748 -18.520325 7.88797c-10.703125 -2.070694 -9.412903 -22.533539 -20.000793 -25.100311c-10.197845 -2.4722137 -23.675629 2.1786346 -31.109222 -5.0182343" fill-rule="evenodd"/><path stroke="#ffffff" stroke-width="1.0" stroke-linejoin="round" stroke-linecap="butt" d="m479.069 207.44803c-13.574127 15.335251 -25.841187 52.28894 -6.6669617 60.243164c6.1108093 2.5350037 11.717499 -13.900482 17.036682 -10.03949c7.136963 5.18042 -1.4015503 17.927277 2.2223206 25.818512c3.5580444 7.7478943 19.58731 -16.379486 24.445404 -9.324371c2.340149 3.3984375 0.9342041 13.73819 4.444641 11.472839c12.196594 -7.8707275 18.013123 -22.780151 23.703613 -35.858017c2.4996338 -5.744705 7.9034424 -18.168976 1.4836426 -18.645676c-6.7246704 -0.4993286 -11.906677 9.16748 -18.520325 7.88797c-10.703125 -2.070694 -9.412903 -22.533539 -20.000793 -25.100311c-10.197845 -2.4722137 -23.675629 2.1786346 -31.109222 -5.0182343" fill-rule="evenodd"/><path fill="#000000" fill-opacity="0.0" d="m284.49353 61.16502c-17.351501 15.429264 -8.250427 65.513336 14.82074 68.08307c9.419464 1.0491638 9.131378 -28.428436 16.84494 -22.918434c3.7675781 2.691307 10.1961975 -1.5620499 12.799469 -5.3920593c10.016724 -14.736916 13.244965 -37.610332 4.717285 -53.25705c-2.9523315 -5.4169693 -10.757599 -6.1626167 -15.495483 -10.111916c-10.320953 -8.603052 -19.087585 -20.221853 -31.66568 -24.940811c-13.726593 -5.1498356 -38.78772 -17.8311 -43.793335 -4.0447664c-7.614395 20.971386 16.091125 49.881294 37.729492 55.276558" fill-rule="evenodd"/><path stroke="#ffffff" stroke-width="1.0" stroke-linejoin="round" stroke-linecap="butt" d="m284.49353 61.16502c-17.351501 15.429264 -8.250427 65.513336 14.82074 68.08307c9.419464 1.0491638 9.131378 -28.428436 16.84494 -22.918434c3.7675781 2.691307 10.1961975 -1.5620499 12.799469 -5.3920593c10.016724 -14.736916 13.244965 -37.610332 4.717285 -53.25705c-2.9523315 -5.4169693 -10.757599 -6.1626167 -15.495483 -10.111916c-10.320953 -8.603052 -19.087585 -20.221853 -31.66568 -24.940811c-13.726593 -5.1498356 -38.78772 -17.8311 -43.793335 -4.0447664c-7.614395 20.971386 16.091125 49.881294 37.729492 55.276558" fill-rule="evenodd"/><path fill="#000000" fill-opacity="0.0" d="m114.03648 99.58507c-26.064629 10.034958 14.827606 60.290283 39.076065 74.15309c4.891159 2.7962646 11.892609 11.072739 15.498352 6.7422333c7.86438 -9.445114 -14.302216 -20.269287 -18.866196 -31.683044c-4.070984 -10.180893 27.443222 -13.613525 22.908737 -23.59639c-9.128204 -20.096176 -40.381485 -31.916832 -61.31295 -24.940811" fill-rule="evenodd"/><path stroke="#ffffff" stroke-width="1.0" stroke-linejoin="round" stroke-linecap="butt" d="m114.03648 99.58507c-26.064629 10.034958 14.827606 60.290283 39.076065 74.15309c4.891159 2.7962646 11.892609 11.072739 15.498352 6.7422333c7.86438 -9.445114 -14.302216 -20.269287 -18.866196 -31.683044c-4.070984 -10.180893 27.443222 -13.613525 22.908737 -23.59639c-9.128204 -20.096176 -40.381485 -31.916832 -61.31295 -24.940811" fill-rule="evenodd"/><path fill="#000000" fill-opacity="0.0" d="m240.02657 349.00763c-4.2651978 2.8460388 -8.817612 8.552002 -7.410385 13.484467c1.6073456 5.6339417 12.876953 10.091309 9.431656 14.828888c-12.257324 16.854889 -32.451233 27.872894 -41.77205 46.51483c-4.860611 9.7213745 -0.8176422 22.636536 4.0425415 32.358124c11.115646 22.233978 39.862152 35.83206 64.67792 37.075104c7.456543 0.37350464 13.50827 -6.9545593 20.887451 -8.089539c7.7689514 -1.1948853 18.403503 5.9176636 23.580597 0c7.9078064 -9.039001 -9.172974 -24.572937 -4.7172546 -35.727814c11.001831 -27.543152 -4.4601135 -61.034332 -18.863342 -86.959595c-9.733215 -17.5195 -18.467682 -38.891937 -36.382935 -47.86212c-14.204239 -7.1120605 -29.726852 24.259827 -26.276566 39.772583c1.3270416 5.9664917 7.113983 9.940216 10.781097 14.828888" fill-rule="evenodd"/><path stroke="#ffffff" stroke-width="1.0" stroke-linejoin="round" stroke-linecap="butt" d="m240.02657 349.00763c-4.2651978 2.8460388 -8.817612 8.552002 -7.410385 13.484467c1.6073456 5.6339417 12.876953 10.091309 9.431656 14.828888c-12.257324 16.854889 -32.451233 27.872894 -41.77205 46.51483c-4.860611 9.7213745 -0.8176422 22.636536 4.0425415 32.358124c11.115646 22.233978 39.862152 35.83206 64.67792 37.075104c7.456543 0.37350464 13.50827 -6.9545593 20.887451 -8.089539c7.7689514 -1.1948853 18.403503 5.9176636 23.580597 0c7.9078064 -9.039001 -9.172974 -24.572937 -4.7172546 -35.727814c11.001831 -27.543152 -4.4601135 -61.034332 -18.863342 -86.959595c-9.733215 -17.5195 -18.467682 -38.891937 -36.382935 -47.86212c-14.204239 -7.1120605 -29.726852 24.259827 -26.276566 39.772583c1.3270416 5.9664917 7.113983 9.940216 10.781097 14.828888" fill-rule="evenodd"/><path fill="#000000" fill-opacity="0.0" d="m158.8809 32.05556l41.76378 0l0 42.01575l-41.76378 0z" fill-rule="evenodd"/><path fill="#ffffff" d="m174.83403 58.97556l-1.640625 0l0 -10.453125q-0.59375 0.5625 -1.5625 1.140625q-0.953125 0.5625 -1.71875 0.84375l0 -1.59375q1.375 -0.640625 2.40625 -1.5625q1.03125 -0.921875 1.453125 -1.78125l1.0625 0l0 13.40625z" fill-rule="nonzero"/><path fill="#000000" fill-opacity="0.0" d="m131.46309 350.57175l41.76378 0l0 42.015747l-41.76378 0z" fill-rule="evenodd"/><path fill="#ffffff" d="m149.85371 375.91364l0 1.578125l-8.828125 0q-0.015625 -0.59375 0.1875 -1.140625q0.34375 -0.90625 1.078125 -1.78125q0.75 -0.875 2.15625 -2.015625q2.171875 -1.78125 2.9375 -2.828125q0.765625 -1.046875 0.765625 -1.96875q0 -0.984375 -0.703125 -1.640625q-0.6875 -0.671875 -1.8125 -0.671875q-1.1875 0 -1.90625 0.71875q-0.703125 0.703125 -0.703125 1.953125l-1.6875 -0.171875q0.171875 -1.890625 1.296875 -2.875q1.140625 -0.984375 3.03125 -0.984375q1.921875 0 3.046875 1.0625q1.125 1.0625 1.125 2.640625q0 0.796875 -0.328125 1.578125q-0.328125 0.78125 -1.09375 1.640625q-0.75 0.84375 -2.53125 2.34375q-1.46875 1.234375 -1.890625 1.6875q-0.421875 0.4375 -0.6875 0.875l6.546875 0z" fill-rule="nonzero"/><path fill="#000000" fill-opacity="0.0" d="m364.956 419.63654l41.763794 0l0 42.015747l-41.763794 0z" fill-rule="evenodd"/><path fill="#ffffff" d="m374.73724 443.0253l1.640625 -0.21875q0.28125 1.40625 0.953125 2.015625q0.6875 0.609375 1.65625 0.609375q1.15625 0 1.953125 -0.796875q0.796875 -0.796875 0.796875 -1.984375q0 -1.125 -0.734375 -1.859375q-0.734375 -0.734375 -1.875 -0.734375q-0.46875 0 -1.15625 0.171875l0.1875 -1.4375q0.15625 0.015625 0.265625 0.015625q1.046875 0 1.875 -0.546875q0.84375 -0.546875 0.84375 -1.671875q0 -0.90625 -0.609375 -1.5q-0.609375 -0.59375 -1.578125 -0.59375q-0.953125 0 -1.59375 0.609375q-0.640625 0.59375 -0.8125 1.796875l-1.640625 -0.296875q0.296875 -1.640625 1.359375 -2.546875q1.0625 -0.90625 2.65625 -0.90625q1.09375 0 2.0 0.46875q0.921875 0.46875 1.40625 1.28125q0.5 0.8125 0.5 1.71875q0 0.859375 -0.46875 1.578125q-0.46875 0.703125 -1.375 1.125q1.1875 0.28125 1.84375 1.140625q0.65625 0.859375 0.65625 2.15625q0 1.734375 -1.28125 2.953125q-1.265625 1.21875 -3.21875 1.21875q-1.765625 0 -2.921875 -1.046875q-1.15625 -1.046875 -1.328125 -2.71875z" fill-rule="nonzero"/><path fill="#000000" fill-opacity="0.0" d="m113.98941 104.81174l41.76378 0l0 42.015747l-41.76378 0z" fill-rule="evenodd"/><path fill="#ffffff" d="m129.02066 131.73174l0 -3.203125l-5.796875 0l0 -1.5l6.09375 -8.65625l1.34375 0l0 8.65625l1.796875 0l0 1.5l-1.796875 0l0 3.203125l-1.640625 0zm0 -4.703125l0 -6.015625l-4.1875 6.015625l4.1875 0z" fill-rule="nonzero"/><path fill="#000000" fill-opacity="0.0" d="m484.82697 223.72746l41.763794 0l0 42.01573l-41.763794 0z" fill-rule="evenodd"/><path fill="#ffffff" d="m494.60822 247.14746l1.71875 -0.140625q0.1875 1.25 0.875 1.890625q0.703125 0.625 1.6875 0.625q1.1875 0 2.0 -0.890625q0.828125 -0.890625 0.828125 -2.359375q0 -1.40625 -0.796875 -2.21875q-0.78125 -0.8125 -2.0625 -0.8125q-0.78125 0 -1.421875 0.359375q-0.640625 0.359375 -1.0 0.9375l-1.546875 -0.203125l1.296875 -6.859375l6.640625 0l0 1.5625l-5.328125 0l-0.71875 3.59375q1.203125 -0.84375 2.515625 -0.84375q1.75 0 2.953125 1.21875q1.203125 1.203125 1.203125 3.109375q0 1.8125 -1.046875 3.140625q-1.296875 1.625 -3.515625 1.625q-1.8125 0 -2.96875 -1.015625q-1.15625 -1.03125 -1.3125 -2.71875z" fill-rule="nonzero"/><path fill="#000000" fill-opacity="0.0" d="m285.23773 46.07133l41.763794 0l0 42.015743l-41.763794 0z" fill-rule="evenodd"/><path fill="#ffffff" d="m303.51898 62.913204l-1.625 0.125q-0.21875 -0.96875 -0.625 -1.40625q-0.65625 -0.703125 -1.640625 -0.703125q-0.78125 0 -1.375 0.4375q-0.765625 0.5625 -1.21875 1.65625q-0.453125 1.0781212 -0.46875 3.0781212q0.59375 -0.890625 1.453125 -1.328125q0.859375 -0.4375 1.796875 -0.4375q1.640625 0 2.78125 1.203125q1.15625 1.203125 1.15625 3.109375q0 1.265625 -0.546875 2.34375q-0.53125 1.078125 -1.484375 1.65625q-0.9375 0.578125 -2.140625 0.578125q-2.0625 0 -3.359375 -1.5q-1.28125 -1.515625 -1.28125 -4.984375q0 -3.8749962 1.421875 -5.624996q1.25 -1.53125 3.375 -1.53125q1.5625 0 2.5625 0.890625q1.015625 0.875 1.21875 2.4375zm-6.6875 5.749996q0 0.84375 0.359375 1.625q0.359375 0.765625 1.0 1.171875q0.640625 0.40625 1.359375 0.40625q1.03125 0 1.78125 -0.828125q0.75 -0.84375 0.75 -2.28125q0 -1.390625 -0.734375 -2.1875q-0.734375 -0.796875 -1.859375 -0.796875q-1.109375 0 -1.890625 0.796875q-0.765625 0.796875 -0.765625 2.09375z" fill-rule="nonzero"/><path fill="#000000" fill-opacity="0.0" d="m246.67278 385.19608l41.76378 0l0 42.015747l-41.76378 0z" fill-rule="evenodd"/><path fill="#ffffff" d="m258.96964 404.88168q-1.015625 -0.375 -1.515625 -1.0625q-0.484375 -0.703125 -0.484375 -1.671875q0 -1.453125 1.046875 -2.4375q1.046875 -1.0 2.78125 -1.0q1.75 0 2.8125 1.015625q1.078125 1.015625 1.078125 2.46875q0 0.9375 -0.5 1.625q-0.484375 0.6875 -1.46875 1.0625q1.21875 0.390625 1.859375 1.28125q0.65625 0.890625 0.65625 2.140625q0 1.703125 -1.21875 2.875q-1.21875 1.171875 -3.1875 1.171875q-1.984375 0 -3.203125 -1.171875q-1.203125 -1.171875 -1.203125 -2.921875q0 -1.3125 0.65625 -2.1875q0.671875 -0.875 1.890625 -1.1875zm-0.328125 -2.78125q0 0.9375 0.609375 1.546875q0.609375 0.59375 1.59375 0.59375q0.9375 0 1.546875 -0.59375q0.609375 -0.59375 0.609375 -1.453125q0 -0.90625 -0.625 -1.515625q-0.625 -0.625 -1.5625 -0.625q-0.9375 0 -1.5625 0.609375q-0.609375 0.59375 -0.609375 1.4375zm-0.53125 6.15625q0 0.703125 0.328125 1.359375q0.34375 0.65625 1.0 1.015625q0.65625 0.359375 1.40625 0.359375q1.171875 0 1.9375 -0.75q0.765625 -0.75 0.765625 -1.921875q0 -1.1875 -0.796875 -1.953125q-0.78125 -0.78125 -1.953125 -0.78125q-1.15625 0 -1.921875 0.765625q-0.765625 0.765625 -0.765625 1.90625z" fill-rule="nonzero"/><path fill="#000000" fill-opacity="0.0" d="m459.81122 298.70566c-6.1630554 6.1075134 -11.048645 15.972229 -8.935791 24.351929c3.7407227 14.835876 32.947845 32.845154 20.10556 41.323425c-17.455872 11.52417 -65.87872 2.5629883 -58.825287 22.138123c5.927826 16.451294 28.247345 21.708038 44.675873 28.040588c12.029572 4.6369324 25.1315 22.042786 35.743256 14.760834c6.905609 -4.738739 13.592255 -12.357727 14.149414 -20.6633c0.55197144 -8.2283325 -9.592438 -15.645081 -7.447571 -23.612946c2.5924377 -9.630585 25.7359 1.2974854 29.041382 -8.116241c2.8318481 -8.064819 -3.7979736 -16.667847 -5.213623 -25.090942c-2.2854004 -13.59848 -1.3303833 -30.10318 -11.169739 -39.848602c-14.529633 -14.390961 -40.171295 -8.544952 -60.31357 -12.543884" fill-rule="evenodd"/><path stroke="#ffffff" stroke-width="1.0" stroke-linejoin="round" stroke-linecap="butt" d="m459.81122 298.70566c-6.1630554 6.1075134 -11.048645 15.972229 -8.935791 24.351929c3.7407227 14.835876 32.947845 32.845154 20.10556 41.323425c-17.455872 11.52417 -65.87872 2.5629883 -58.825287 22.138123c5.927826 16.451294 28.247345 21.708038 44.675873 28.040588c12.029572 4.6369324 25.1315 22.042786 35.743256 14.760834c6.905609 -4.738739 13.592255 -12.357727 14.149414 -20.6633c0.55197144 -8.2283325 -9.592438 -15.645081 -7.447571 -23.612946c2.5924377 -9.630585 25.7359 1.2974854 29.041382 -8.116241c2.8318481 -8.064819 -3.7979736 -16.667847 -5.213623 -25.090942c-2.2854004 -13.59848 -1.3303833 -30.10318 -11.169739 -39.848602c-14.529633 -14.390961 -40.171295 -8.544952 -60.31357 -12.543884" fill-rule="evenodd"/><path fill="#000000" fill-opacity="0.0" d="m471.6887 323.65482l41.763763 0l0 42.015747l-41.763763 0z" fill-rule="evenodd"/><path fill="#ffffff" d="m481.5793 338.96542l0 -1.578125l8.640625 0l0 1.28125q-1.28125 1.359375 -2.53125 3.609375q-1.25 2.25 -1.9375 4.625q-0.484375 1.671875 -0.625 3.671875l-1.6875 0q0.03125 -1.578125 0.625 -3.8125q0.59375 -2.234375 1.6875 -4.296875q1.109375 -2.078125 2.359375 -3.5l-6.53125 0z" fill-rule="nonzero"/><path fill="#000000" fill-opacity="0.0" d="m9.603413 185.8734c1.186183 10.666351 13.728243 20.016617 10.781088 30.33574c-4.956397 17.354263 -19.899197 33.34099 -17.516756 51.23178c2.8875353 21.683807 20.265276 39.82364 36.382942 54.60437c6.75758 6.197052 5.7728844 19.867462 14.148922 23.593506c14.4085655 6.409607 38.53079 0.16775513 45.13988 -14.156677c7.2699738 -15.756805 -16.30748 -39.635223 -4.042549 -51.90689c15.403763 -15.412201 43.598366 1.1425171 65.35264 0c6.279114 -0.32977295 1.6546173 -12.804169 0 -18.873657c-4.3062286 -15.796097 -24.136993 -22.130722 -35.708237 -33.708298c-18.034721 -18.044617 -36.794785 -36.339417 -49.182426 -58.64624c-5.864128 -10.559723 0.108802795 -30.909729 -11.455807 -34.380524c-24.185425 -7.258568 -29.398972 47.145218 -53.899696 53.25418" fill-rule="evenodd"/><path stroke="#ffffff" stroke-width="1.0" stroke-linejoin="round" stroke-linecap="butt" d="m9.603413 185.8734c1.186183 10.666351 13.728243 20.016617 10.781088 30.33574c-4.956397 17.354263 -19.899197 33.34099 -17.516756 51.23178c2.8875353 21.683807 20.265276 39.82364 36.382942 54.60437c6.75758 6.197052 5.7728844 19.867462 14.148922 23.593506c14.4085655 6.409607 38.53079 0.16775513 45.13988 -14.156677c7.2699738 -15.756805 -16.30748 -39.635223 -4.042549 -51.90689c15.403763 -15.412201 43.598366 1.1425171 65.35264 0c6.279114 -0.32977295 1.6546173 -12.804169 0 -18.873657c-4.3062286 -15.796097 -24.136993 -22.130722 -35.708237 -33.708298c-18.034721 -18.044617 -36.794785 -36.339417 -49.182426 -58.64624c-5.864128 -10.559723 0.108802795 -30.909729 -11.455807 -34.380524c-24.185425 -7.258568 -29.398972 47.145218 -53.899696 53.25418" fill-rule="evenodd"/><path fill="#000000" fill-opacity="0.0" d="m47.333344 217.7523l41.76378 0l0 42.01573l-41.76378 0z" fill-rule="evenodd"/><path fill="#ffffff" d="m57.34897 241.57855l1.578125 -0.140625q0.203125 1.109375 0.765625 1.609375q0.5625 0.5 1.453125 0.5q0.75 0 1.3125 -0.34375q0.578125 -0.34375 0.9375 -0.921875q0.375 -0.578125 0.609375 -1.5625q0.25 -0.984375 0.25 -2.0q0 -0.109375 0 -0.328125q-0.5 0.78125 -1.359375 1.265625q-0.84375 0.484375 -1.828125 0.484375q-1.671875 0 -2.8125 -1.203125q-1.140625 -1.203125 -1.140625 -3.171875q0 -2.03125 1.1875 -3.265625q1.203125 -1.234375 3.0 -1.234375q1.3125 0 2.390625 0.703125q1.078125 0.703125 1.640625 2.0q0.5625 1.296875 0.5625 3.75q0 2.5625 -0.5625 4.078125q-0.5625 1.515625 -1.65625 2.3125q-1.09375 0.796875 -2.578125 0.796875q-1.5625 0 -2.5625 -0.875q-0.984375 -0.875 -1.1875 -2.453125zm6.71875 -5.890625q0 -1.40625 -0.75 -2.234375q-0.75 -0.828125 -1.8125 -0.828125q-1.09375 0 -1.90625 0.890625q-0.8125 0.890625 -0.8125 2.3125q0 1.28125 0.765625 2.078125q0.78125 0.796875 1.90625 0.796875q1.140625 0 1.875 -0.796875q0.734375 -0.796875 0.734375 -2.21875z" fill-rule="nonzero"/><path fill="#000000" fill-opacity="0.0" d="m361.9733 17.347483c-8.942108 8.941563 0.83792114 26.710672 8.085083 37.07511c5.421051 7.7528343 -1.0791016 18.898613 -2.0212708 28.31337c-2.3769226 23.751877 -23.700958 42.5177 -27.623138 66.06355c-3.0270386 18.172318 13.645447 35.869797 27.623138 47.86212c10.575195 9.073105 26.27127 20.318558 39.07605 14.828888c13.283966 -5.695099 22.194244 -20.84555 36.382965 -23.593506c23.877563 -4.6244354 54.295715 10.442505 72.76297 -5.3920746c25.252869 -21.652756 23.791199 -73.50504 3.3707275 -99.76898c-21.523438 -27.68256 -59.7323 -39.0085 -93.65045 -47.862114c-21.044586 -5.4932365 -40.910583 -18.20145 -62.659515 -18.20145" fill-rule="evenodd"/><path stroke="#ffffff" stroke-width="1.0" stroke-linejoin="round" stroke-linecap="butt" d="m361.9733 17.347483c-8.942108 8.941563 0.83792114 26.710672 8.085083 37.07511c5.421051 7.7528343 -1.0791016 18.898613 -2.0212708 28.31337c-2.3769226 23.751877 -23.700958 42.5177 -27.623138 66.06355c-3.0270386 18.172318 13.645447 35.869797 27.623138 47.86212c10.575195 9.073105 26.27127 20.318558 39.07605 14.828888c13.283966 -5.695099 22.194244 -20.84555 36.382965 -23.593506c23.877563 -4.6244354 54.295715 10.442505 72.76297 -5.3920746c25.252869 -21.652756 23.791199 -73.50504 3.3707275 -99.76898c-21.523438 -27.68256 -59.7323 -39.0085 -93.65045 -47.862114c-21.044586 -5.4932365 -40.910583 -18.20145 -62.659515 -18.20145" fill-rule="evenodd"/><path fill="#000000" fill-opacity="0.0" d="m411.43234 91.843056l55.716553 0l0 42.015755l-55.716553 0z" fill-rule="evenodd"/><path fill="#ffffff" d="m427.38547 118.763054l-1.640625 0l0 -10.453125q-0.59375 0.5625 -1.5625 1.140625q-0.953125 0.5625 -1.71875 0.84375l0 -1.59375q1.375 -0.640625 2.40625 -1.5625q1.03125 -0.921875 1.453125 -1.78125l1.0625 0l0 13.40625zm4.2038574 -6.59375q0 -2.359375 0.484375 -3.796875q0.484375 -1.453125 1.4375 -2.234375q0.96875 -0.78125 2.421875 -0.78125q1.078125 0 1.890625 0.4375q0.8125 0.421875 1.328125 1.25q0.53125 0.8125 0.828125 1.984375q0.3125 1.15625 0.3125 3.140625q0 2.359375 -0.484375 3.8125q-0.484375 1.4375 -1.453125 2.234375q-0.953125 0.78125 -2.421875 0.78125q-1.921875 0 -3.03125 -1.390625q-1.3125 -1.671875 -1.3125 -5.4375zm1.671875 0q0 3.296875 0.765625 4.390625q0.78125 1.078125 1.90625 1.078125q1.140625 0 1.90625 -1.09375q0.765625 -1.09375 0.765625 -4.375q0 -3.296875 -0.765625 -4.375q-0.765625 -1.078125 -1.921875 -1.078125q-1.125 0 -1.796875 0.953125q-0.859375 1.21875 -0.859375 4.5z" fill-rule="nonzero"/><path fill="#000000" fill-opacity="0.0" d="m190.84299 56.44531c-3.915924 5.868767 -10.153763 15.03941 -16.84491 12.809383c-7.4426575 -2.480484 -5.9487 -15.0923 -5.3891144 -22.921299c0.22483826 -3.145546 -2.1472473 -8.0265045 0.6718445 -9.436829c3.9003754 -1.9512596 7.469879 4.575279 10.781097 7.414448c5.197418 4.4564705 15.495483 6.6330223 15.495483 13.481598" fill-rule="evenodd"/><path stroke="#ffffff" stroke-width="1.0" stroke-linejoin="round" stroke-linecap="butt" d="m190.84299 56.44531c-3.915924 5.868767 -10.153763 15.03941 -16.84491 12.809383c-7.4426575 -2.480484 -5.9487 -15.0923 -5.3891144 -22.921299c0.22483826 -3.145546 -2.1472473 -8.0265045 0.6718445 -9.436829c3.9003754 -1.9512596 7.469879 4.575279 10.781097 7.414448c5.197418 4.4564705 15.495483 6.6330223 15.495483 13.481598" fill-rule="evenodd"/><path fill="#000000" fill-opacity="0.0" d="m137.28113 358.84125c-2.466446 14.785736 3.787201 45.245544 18.191467 41.122772c17.237457 -4.933716 4.583145 -44.55954 -11.452927 -52.58197c-9.743759 -4.8745728 -10.732544 21.109985 -8.085098 31.683044" fill-rule="evenodd"/><path stroke="#ffffff" stroke-width="1.0" stroke-linejoin="round" stroke-linecap="butt" d="m137.28113 358.84125c-2.466446 14.785736 3.787201 45.245544 18.191467 41.122772c17.237457 -4.933716 4.583145 -44.55954 -11.452927 -52.58197c-9.743759 -4.8745728 -10.732544 21.109985 -8.085098 31.683044" fill-rule="evenodd"/></g></svg>